<?xml version="1.0" encoding="UTF-8" standalone="no"?>
<!-- Created with Inkscape (http://www.inkscape.org/) -->

<svg
   width="5080"
   height="982"
   id="svg2"
   version="1.1"
   inkscape:version="1.2.2 (732a01da63, 2022-12-09)"
   sodipodi:docname="ps-logo-github-wiki.svg"
   xml:space="preserve"
   xmlns:inkscape="http://www.inkscape.org/namespaces/inkscape"
   xmlns:sodipodi="http://sodipodi.sourceforge.net/DTD/sodipodi-0.dtd"
   xmlns="http://www.w3.org/2000/svg"
   xmlns:svg="http://www.w3.org/2000/svg"
   xmlns:rdf="http://www.w3.org/1999/02/22-rdf-syntax-ns#"
   xmlns:cc="http://creativecommons.org/ns#"
   xmlns:dc="http://purl.org/dc/elements/1.1/"><sodipodi:namedview
     id="base"
     pagecolor="#ffffff"
     bordercolor="#666666"
     borderopacity="1.0"
     inkscape:pageopacity="0.0"
     inkscape:pageshadow="2"
     inkscape:zoom="0.32"
     inkscape:cx="2479.6875"
     inkscape:cy="321.875"
     inkscape:document-units="px"
     inkscape:current-layer="g888"
     showgrid="false"
     gridtolerance="10000"
     inkscape:window-width="2560"
     inkscape:window-height="1369"
     inkscape:window-x="-5"
     inkscape:window-y="1432"
     inkscape:window-maximized="1"
     guidetolerance="10000"
     inkscape:snap-global="true"
     inkscape:snap-bbox="true"
     inkscape:snap-bbox-edge-midpoints="true"
     inkscape:bbox-nodes="false"
     inkscape:snap-grids="true"
     inkscape:snap-to-guides="true"
     showguides="false"
     inkscape:guide-bbox="true"
     inkscape:snap-path-clip="true"
     inkscape:snap-path-mask="true"
     objecttolerance="50"
     showborder="false"
     inkscape:showpageshadow="2"
     inkscape:pagecheckerboard="0"
     inkscape:deskcolor="#d1d1d1"><inkscape:grid
       type="xygrid"
       id="grid2985"
       empspacing="5"
       visible="true"
       enabled="true"
       snapvisiblegridlinesonly="true"
       empcolor="#c0504d"
       empopacity="0.19607843"
       color="#8db3e2"
       opacity="0.15686275"
       dotted="false"
       originx="0"
       originy="0" /><sodipodi:guide
       position="-929.07276,8484.8816"
       orientation="1,0"
       id="guide7491"
       inkscape:locked="false" /></sodipodi:namedview><defs
     id="defs4">
		
	</defs><metadata
     id="metadata7"><rdf:RDF><cc:Work
         rdf:about=""><dc:format>image/svg+xml</dc:format><dc:type
           rdf:resource="http://purl.org/dc/dcmitype/StillImage" /></cc:Work></rdf:RDF></metadata><g
     inkscape:label="Layer 1"
     inkscape:groupmode="layer"
     id="layer1"
     transform="translate(0,-170.36217)"><g
       id="g888"
       transform="translate(-2.3671761,100.51469)"><rect
         style="fill:#ffffff;fill-opacity:1;stroke-width:9.99994;stroke-linejoin:round;paint-order:fill markers stroke"
         id="rect1724"
         width="5080"
         height="982"
         x="2.3671761"
         y="69.847481"
         rx="80.000008"
         ry="79.999985" /><ellipse
         ry="136.49165"
         rx="135.95767"
         cy="530.0304"
         cx="272.22995"
         id="path7015-3-5-6-6-9-1-5-8-0-6-8-4"
         style="fill:#1f2d41;fill-opacity:1;stroke:none;stroke-width:1;stroke-miterlimit:4;stroke-dasharray:none" /><ellipse
         ry="90.994438"
         rx="90.638451"
         cy="208.92105"
         cx="559.25165"
         id="path7015-2-2-2-5-6-0-8-6-2-4-27-2-8"
         style="fill:#1f2d41;fill-opacity:1;stroke:none;stroke-width:1;stroke-miterlimit:4;stroke-dasharray:none" /><path
         sodipodi:nodetypes="cccssccsccsssss"
         inkscape:connector-curvature="0"
         id="path11296-5-0-9-6-8-1-9-6-1-04-8-7-0"
         d="m 228.69163,680.78506 c -12.4,0.2737 -17.1566,8.4472 -19.7898,12.4288 L 58.945131,952.37816 c -15.1064,27.2983 6.0426,47.5193 26.1845,47.5193 H 459.76853 c 20.1419,0 41.2909,-20.221 25.1774,-47.5193 l -148.8886,-258.8978 c -3.1819,-5.9979 -10.0889,-15.543 -27.5122,-11.4059 -22.216,5.2752 -50.4146,5.2752 -72.143,-0.5529 -2.8556,-0.5679 -5.4142,-0.7872 -7.7105,-0.7365 z m 43.5371,51.1981 c 16.7847,0 33.5702,29.7746 67.8176,89.3259 68.495,119.1025 69.1743,117.9233 -67.8156,117.9233 -136.9898,2e-4 -136.3125,1.1793 -67.8175,-117.9233 34.2474,-59.5513 51.0309,-89.3259 67.8155,-89.3259 z"
         style="fill:#1f2d41;fill-opacity:1;fill-rule:evenodd;stroke:none;stroke-width:1px;stroke-linecap:butt;stroke-linejoin:miter;stroke-opacity:1" /><path
         id="path11315-3-8-6-3-1-0-9-4-3-99-7-7-2"
         d="m 455.82173,247.38136 -160.297,128.4744 a 155.52334,156.13415 0 0 1 127.3129,115.7691 c 0.2377,0.4261 0.4714,0.834 0.71,1.2638 l 111.5396,-175.9443 a 110.3714,110.80488 0 0 1 -79.2655,-69.563 z"
         style="fill:#1f2d41;fill-opacity:1;fill-rule:evenodd;stroke:none;stroke-width:1px;stroke-linecap:butt;stroke-linejoin:miter;stroke-opacity:1"
         inkscape:connector-curvature="0" /><path
         id="path11339-0-3-6-8-0-0-1-2-3-9-39-6-0"
         d="m 654.08943,265.35526 a 110.3714,110.80488 0 0 1 -49.562,44.4664 l 48.3621,54.0319 -16.9336,117.2225 c -0.098,9.1228 4.7484,13.8383 9.7169,18.418 7.1686,6.4383 9.9863,8.1333 17.2071,11.6626 l 90.5459,40.6533 c 5.3513,1.4405 7.5215,0.8405 10.1065,-2.3223 6.5562,-7.802 5.2857,-10.7346 1.5086,-14.9544 l -44.133,-41.7433 c -2.9543,-3.3005 -6.565,-6.9141 -10.0966,-11.2795 -2.878,-4.7283 -4.3991,-10.0683 -2.6062,-18.0389 l 12.4471,-52.7208 c 0.9592,-3.3981 1.9369,-8.3569 7.1223,-13.2206 5.3019,-4.5971 8.1456,-4.444 14.1722,-5.2745 l 53.1537,-7.1721 c 8.0347,-0.4518 13.2123,1.1452 17.5886,4.522 4.5262,3.5441 7.1259,7.7469 10.0965,11.2815 l 36.6409,48.5007 c 3.7771,4.22 6.7792,5.8902 14.2233,0.7624 3.4078,-2.2434 5.761,-6.2829 4.1247,-10.5174 l -30.618,-94.7148 c -3.4751,-6.9081 -4.4335,-9.5314 -9.7169,-18.4199 -4.1484,-7.6602 -7.5131,-11.4191 -17.2071,-11.6607 l -117.9027,4.4154 z"
         style="fill:#1f2d41;fill-opacity:1;fill-rule:evenodd;stroke:none;stroke-width:1px;stroke-linecap:butt;stroke-linejoin:miter;stroke-opacity:1"
         inkscape:connector-curvature="0" /><path
         inkscape:connector-curvature="0"
         id="path8474-0-7-9-0-6-7-1-8-7-7-5-4-3-8-0"
         d="m 358.07733,688.36256 v 0.5589 l 35.1461,61.1151 h 488.5427 v 0.067 a 90.551761,90.907403 0 0 1 90.552,90.9075 90.551761,90.907403 0 0 1 -90.552,90.9095 v 60.7617 a 151.56769,152.16299 0 0 0 0.4839,0.01 151.56769,152.16299 0 0 0 21.1628,-1.6527 l 5.0178,-21.242 a 131.53458,132.05116 0 0 0 18.6351,-5.241 l 15.2836,15.468 a 151.56769,152.16299 0 0 0 33.2241,-19.6602 l -6.2766,-21.0543 a 131.53458,132.05116 0 0 0 13.6509,-13.8349 l 20.82237,5.6932 a 151.56769,152.16299 0 0 0 18.94,-33.7418 l -15.8421,-15.0098 a 131.53458,132.05116 0 0 0 4.774,-18.8387 l 21.0761,-5.5766 a 151.56769,152.16299 0 0 0 1.0996,-17.4721 151.56769,152.16299 0 0 0 -1.6464,-21.2459 l -21.1588,-5.0374 a 131.53458,132.05116 0 0 0 -5.2203,-18.7104 l 15.4073,-15.3435 a 151.56769,152.16299 0 0 0 -19.5833,-33.3508 l -20.97187,6.3013 a 131.53458,132.05116 0 0 0 -13.7806,-13.7064 l 5.6707,-20.9042 a 151.56769,152.16299 0 0 0 -33.6097,-19.0165 l -14.951,15.9063 a 131.53458,132.05116 0 0 0 -18.7631,-4.7925 l -5.5548,-21.157 a 151.56769,152.16299 0 0 0 -17.4058,-1.1059 v 0 a 151.56769,152.16299 0 0 0 -0.4839,0.027 v -0.027 h -523.6888 z"
         style="fill:#1f2d41;fill-opacity:1;stroke:none;stroke-width:2.83358" /><path
         inkscape:connector-curvature="0"
         id="path8474-0-7-9-0-6-4-09-7-6-7-3-3-1-65-2-73"
         d="m 352.74413,688.36256 v 0.555 l 35.146,61.1151 h 262.4404 v -61.6701 z"
         style="fill:#1f2d41;fill-opacity:1;stroke:none;stroke-width:2.83358" /><g
         transform="matrix(1.0070939,0,0,1.0110493,-5995.1487,526.73926)"
         id="g2256-72-6-0-0-4-8-4-8"
         style="fill:#1f2d41;fill-opacity:1;stroke-width:0.991012"><path
           style="fill:#1f2d41;fill-opacity:1;stroke:none;stroke-width:2.80811"
           d="m 6529.6885,400.7529 v 0.54082 l 34.8984,59.55688 h 260.5918 v -60.0977 z"
           id="path8474-0-7-9-0-6-4-09-7-0-5-9-8-0-4-9-1-3"
           inkscape:connector-curvature="0" /><path
           style="fill:#1f2d41;fill-opacity:1;stroke:none;stroke-width:2.80811"
           d="m 6441.0026,400.75287 v 0.54082 l 34.8984,59.55688 h 260.5918 v -60.0977 z"
           id="path8474-0-7-9-0-6-4-09-7-0-9-68-8-6-4-3-3-0-2"
           inkscape:connector-curvature="0" /></g><g
         transform="matrix(1.0070939,0,0,1.0110493,-5989.5457,526.73916)"
         id="g2256-7-4-7-8-8-9-8-2-2"
         style="fill:#1f2d41;fill-opacity:1;stroke-width:0.991012"><path
           style="fill:#1f2d41;fill-opacity:1;stroke:none;stroke-width:2.80811"
           d="m 6529.6885,400.7529 v 0.54082 l 34.8984,59.55688 h 260.5918 v -60.0977 z"
           id="path8474-0-7-9-0-6-4-09-7-0-94-9-2-1-5-7-4-5-4"
           inkscape:connector-curvature="0" /><path
           style="fill:#1f2d41;fill-opacity:1;stroke:none;stroke-width:2.80811"
           d="m 6441.0026,400.75287 v 0.54082 l 34.8984,59.55688 h 260.5918 v -60.0977 z"
           id="path8474-0-7-9-0-6-4-09-7-0-9-6-9-5-8-4-2-2-5-8"
           inkscape:connector-curvature="0" /></g><g
         aria-label="WIKI"
         transform="scale(0.8654499,1.1554684)"
         id="text5347-2-7-7-0-2-1-4-1-3-01"
         style="font-weight:bold;font-size:182.497px;line-height:125%;font-family:'Concourse C7';-inkscape-font-specification:'Concourse C7, Bold';letter-spacing:0px;word-spacing:0px;fill:#1f2d41;stroke:#008000;stroke-width:0.999997px"><path
           d="m 672.65288,727.98185 -17.8847,61.50149 H 628.30611 L 589.98175,665.38538 h 36.49939 l 15.87724,65.88142 h 0.91249 l 17.8847,-65.88142 h 23.72461 l 17.88471,65.88142 h 0.91248 l 15.87724,-65.88142 h 36.4994 l -38.32437,124.09796 h -26.46206 l -17.70221,-61.50149 z"
           id="path1006" /><path
           d="M 812.44545,789.48334 H 778.13602 V 665.38538 h 34.30943 z"
           id="path1008" /><path
           d="M 958.2607,789.48334 H 916.28639 L 881.06447,736.9242 h -1.27748 v 52.55914 H 845.47756 V 665.38538 h 34.30943 v 49.09169 h 1.27748 l 33.94444,-49.09169 h 39.78434 v 0.91249 l -42.52179,58.03404 45.98924,64.60394 z"
           id="path1010" /><path
           d="M 1015.0172,789.48334 H 980.70778 V 665.38538 h 34.30942 z"
           id="path1012" /></g><g
         style="fill:#ffffff;stroke-width:1.24847"
         id="g26"
         transform="matrix(1.0679694,0,0,-1.06797,875.2461,508.57605)"><path
           inkscape:connector-curvature="0"
           d="m 42.760497,-18.395281 c -22.931698,24.2107209 -61.155034,25.2520035 -85.370138,2.31618 -19.370341,-18.347009 -23.905901,-46.475476 -13.203279,-69.386732 1.669537,-2.575547 3.788414,-2.094728 4.946424,-0.997896 1.044749,0.989556 4.460666,4.302142 8.106307,7.790996 -14.205007,9.685148 -8.817699,19.670599 -8.817699,19.670599 3.1779,6.79363 1.804335,10.944234 1.804335,10.944234 -1.046598,6.555268 2.949244,2.224585 2.949244,2.224585 3.860738,-4.695556 1.846973,-11.000856 1.846973,-11.000856 -2.998149,-10.258237 4.950526,-14.769024 8.440489,-16.209829 3.206353,2.289053 6.216723,2.98619 8.499173,2.769351 -8.11579,10.787542 -14.051841,24.585918 2.747646,40.49789 4.785956,4.533114 10.319988,6.525584 16.0468123,6.629106 0.6731152,1.501161 3.7109476,7.225516 12.0055758,10.564188 0,0 4.6647816,-2.566269 6.9273625,-16.316617 4.2839224,-2.577156 8.3235834,-5.86637 11.8701254,-9.575821 3.511692,-3.742459 6.579778,-7.957428 8.927048,-12.381321 13.598504,-2.995394 15.903247,-7.787379 15.903247,-7.787379 -3.778706,-8.106471 -9.659361,-10.829443 -11.194814,-11.42017 -0.407704,-5.719317 -2.709005,-11.124825 -7.49496,-15.657939 -16.840144,-15.950478 -30.2619266,-9.20518 -40.594418,-0.470401 0.12892,-2.86126 -1.21202,-6.789669 -5.302443,-10.663996 -5.86628,-5.556361 -10.635069,-9.978181 -12.079132,-11.345951 -1.167448,-1.10578 -1.787018,-3.18843 0.747744,-5.00369 22.2955192,-11.91428 50.607615,-8.90013 69.972148,9.44138 24.215104,22.935824 25.250677,61.156464 2.316229,85.370089"
           style="fill:#ffffff;fill-opacity:1;fill-rule:evenodd;stroke:none;stroke-width:1.24847"
           id="path28" /></g><path
         id="path10119"
         style="fill:#4c6c9c;stroke:#000000;stroke-width:0;stroke-linejoin:round;paint-order:fill markers stroke"
         d="m 894.95859,464.39676 c -12.74299,0.85979 -27.27699,2.59592 -28.13487,9.15837 l -5.74155,2.10508 c 5.70603,0.44528 11.321,2.63627 15.94244,6.69413 11.37033,9.98385 12.49856,27.35681 2.51372,38.72833 -5.0734,5.77798 -12.37985,9.17445 -20.0491,9.31452 l 20.51323,18.01168 c 1.30526,1.14608 1.43442,3.1359 0.28827,4.44116 l -17.78643,20.25644 c 7.22054,-0.45877 14.46205,1.99881 19.86288,6.74101 v 0 c 11.37033,9.98385 12.49836,27.35893 2.51226,38.72946 -9.98385,11.37033 -27.35893,12.49856 -38.72688,2.51438 -5.39963,-4.74121 -8.77401,-11.60074 -9.25294,-18.82214 l -17.78749,20.25789 c -1.14615,1.30527 -3.1359,1.43443 -4.44117,0.28827 l -18.45722,-16.20637 c -0.9127,-0.8014 -1.28186,-2.05727 -0.95079,-3.22598 0.33437,-1.17009 1.30705,-2.04166 2.5069,-2.24442 5.50889,-0.92514 10.38369,-3.64658 14.09197,-7.86984 8.81277,-10.03669 7.81416,-25.3676 -2.21896,-34.17725 -10.03312,-8.80966 -25.36541,-7.81204 -34.17507,2.22114 -3.62938,4.13339 -5.68831,9.18926 -5.96534,14.64134 0.0667,0.82071 -0.18735,1.66563 -0.77283,2.33252 -1.14615,1.30527 -3.1355,1.43436 -4.44077,0.28827 -0.009,-0.007 -0.0139,-0.0152 -0.0238,-0.0205 l -7.37741,-6.47787 A 110.0169,110.0169 0 0 0 866.82358,680.75356 110.0169,110.0169 0 0 0 976.8405,570.73666 110.0169,110.0169 0 0 0 894.95846,464.39662 Z m -55.37767,19.14764 -0.26143,0.0956 -0.0212,0.19483 c 0.0943,-0.0967 0.18716,-0.19542 0.28259,-0.29046 z" /><g
         aria-label="GitHub Wiki — Design and Implementation "
         id="text817"
         style="font-size:213.333px;font-family:'Concourse T6';-inkscape-font-specification:'Concourse T6, Normal';fill:#1f2d41;stroke:#008000;stroke-width:0;stroke-linejoin:round;paint-order:fill markers stroke"><path
           d="m 1329.1739,771.40755 q -8.5333,0 -16.64,2.98666 -8.1066,2.77333 -14.2933,8.95999 -6.1866,6.18665 -10.0266,15.99997 -3.84,9.59999 -3.84,23.2533 0,10.87998 3.84,19.4133 3.84,8.53332 10.0266,14.50664 6.4,5.97333 14.5067,9.17332 8.3199,2.98666 17.0666,2.98666 8.96,0 15.36,-1.91999 6.4,-1.92 10.24,-5.33333 v -24.53329 h -32.64 v -26.45329 h 61.2266 v 65.49323 q -10.6667,8.74665 -24.1067,14.29331 -13.2266,5.54665 -31.1466,5.54665 -16.2133,0 -29.8666,-5.54665 -13.6533,-5.76 -23.68,-15.57331 -9.8133,-9.81332 -15.3599,-23.03997 -5.5467,-13.22664 -5.5467,-28.15995 0,-18.55997 5.9733,-33.27995 6.1867,-14.71997 16.4267,-24.74663 10.4533,-10.23998 24.1066,-15.5733 13.6533,-5.54666 28.8,-5.54666 15.3599,0 27.3066,4.69332 11.9466,4.48 20.48,9.38666 l -7.2534,26.23995 h -1.92 q -6.8266,-5.54665 -16.4266,-9.38665 -9.6,-3.83999 -22.6133,-3.83999 z"
           id="path1072" /><path
           d="m 1435.4135,795.30084 v 97.27985 h -27.7333 v -93.86652 z m -30.7199,-32.63994 q 0,-7.03999 4.9066,-11.94665 4.9067,-4.90666 11.9467,-4.90666 7.04,0 11.9466,4.90666 4.9067,4.90666 4.9067,11.94665 0,7.03998 -4.9067,11.94664 -4.9066,4.90666 -11.9466,4.90666 -7.04,0 -11.9467,-4.90666 -4.9066,-4.90666 -4.9066,-11.94664 z"
           id="path1074" /><path
           d="m 1493.44,762.6609 v 33.27994 h 18.3466 v 23.8933 H 1493.44 v 72.74655 h -27.7333 v -72.74655 h -17.4933 v -18.55997 l 17.4933,-6.82666 v -24.10663 z"
           id="path1076" /><path
           d="m 1645.333,892.58069 h -28.8 v -60.7999 h -61.4399 v 60.7999 h -28.7999 V 747.51425 h 28.7999 v 57.81324 h 61.4399 v -57.81324 h 28.8 z"
           id="path1078" /><path
           d="m 1725.333,881.06071 q -4.48,5.97332 -11.52,10.45331 -7.04,4.26666 -16,4.26666 -5.76,0 -11.0933,-1.91999 -5.12,-1.70667 -9.1733,-5.75999 -4.0533,-4.26666 -6.6133,-10.87999 -2.3467,-6.82665 -2.3467,-16.63997 v -64.6399 h 27.7333 v 56.74658 q 0,8.95998 3.2,13.01331 3.2,3.84 9.1733,3.84 4.9067,0 9.3867,-3.41333 4.48,-3.41333 6.8266,-9.81332 v -60.37324 h 27.7333 v 96.63985 h -23.4666 l -2.56,-11.51998 z"
           id="path1080" /><path
           d="m 1799.5727,800.42084 q 4.6934,-3.41333 10.24,-5.33333 5.76,-2.13333 12.5867,-2.13333 8.96,0 16.2133,3.83999 7.2533,3.84 12.16,10.45332 4.9066,6.39999 7.4666,15.35998 2.7733,8.95998 2.7733,19.19997 0,12.15998 -3.6266,22.18663 -3.4133,9.81332 -10.0267,17.06664 -6.4,7.03999 -15.7866,10.87998 -9.1733,3.83999 -20.48,3.83999 -10.88,0 -20.6933,-2.98666 -9.6,-2.98666 -19.4133,-8.95998 V 747.51425 l 27.7333,-2.55999 v 55.46658 z m -0.8533,66.77322 q 2.3467,2.34667 5.76,3.2 3.4133,0.64 7.04,0.64 4.0533,0 7.8933,-1.70667 3.84,-1.70666 6.6133,-5.11999 2.9867,-3.62666 4.6934,-8.74665 1.92,-5.33333 1.92,-12.37332 0,-5.11999 -0.8534,-9.81331 -0.8533,-4.69333 -2.9866,-8.10666 -1.92,-3.41333 -5.3334,-5.33332 -3.2,-2.13333 -8.1066,-2.13333 -5.76,0 -10.0267,2.98666 -4.2666,2.98666 -6.6133,5.54666 z"
           id="path1082" /><path
           d="m 2005.4389,810.02082 -23.68,82.55987 h -19.8399 l -47.1466,-145.06644 h 30.9333 l 26.8799,89.38653 h 0.8534 l 23.2533,-89.38653 h 18.3466 l 23.4666,89.38653 h 0.8534 l 27.0932,-89.38653 h 30.9333 l -47.3599,145.06644 h -19.84 l -23.8933,-82.55987 z"
           id="path1084" /><path
           d="m 2135.1455,795.30084 v 97.27985 h -27.7333 v -93.86652 z m -30.72,-32.63994 q 0,-7.03999 4.9067,-11.94665 4.9066,-4.90666 11.9466,-4.90666 7.04,0 11.9467,4.90666 4.9066,4.90666 4.9066,11.94665 0,7.03998 -4.9066,11.94664 -4.9067,4.90666 -11.9467,4.90666 -7.04,0 -11.9466,-4.90666 -4.9067,-4.90666 -4.9067,-11.94664 z"
           id="path1086" /><path
           d="m 2239.2519,797.00751 -39.2533,44.79993 41.1733,49.27992 v 1.49333 h -33.4933 l -23.68,-31.57328 h -1.28 v 31.57328 h -27.7333 V 747.51425 l 27.7333,-2.55999 v 78.71987 h 1.4934 l 22.8266,-27.73329 h 32.2133 z"
           id="path1088" /><path
           d="m 2278.0786,795.30084 v 97.27985 h -27.7333 v -93.86652 z m -30.72,-32.63994 q 0,-7.03999 4.9067,-11.94665 4.9067,-4.90666 11.9466,-4.90666 7.04,0 11.9467,4.90666 4.9067,4.90666 4.9067,11.94665 0,7.03998 -4.9067,11.94664 -4.9067,4.90666 -11.9467,4.90666 -7.0399,0 -11.9466,-4.90666 -4.9067,-4.90666 -4.9067,-11.94664 z"
           id="path1090" /><path
           d="m 2529.3846,831.14079 v 20.47996 h -174.0797 v -20.47996 z"
           id="path1092" /><path
           d="m 2653.9709,866.1274 q 9.8133,0 18.1333,-3.2 8.5333,-3.19999 14.72,-9.17332 6.4,-5.97332 9.8133,-14.29331 3.6267,-8.31998 3.6267,-18.55997 0,-12.37331 -4.2667,-21.11996 -4.0533,-8.95999 -10.4533,-14.71998 -6.4,-5.75999 -14.2933,-8.31999 -7.8933,-2.77333 -15.36,-2.77333 h -17.0666 v 92.15986 z m -43.9466,26.45329 V 747.51425 h 43.5199 q 16.64,0 30.72,4.90666 14.08,4.69333 24.1066,14.07998 10.24,9.38665 16,23.2533 5.76,13.65331 5.76,31.57328 0,15.99997 -5.9733,29.22662 -5.76,13.01331 -16,22.39996 -10.24,9.38665 -24.1066,14.50665 -13.6533,5.11999 -29.2267,5.11999 z"
           id="path1094" /><path
           d="m 2819.304,863.35407 3.6267,22.82663 q -7.04,4.69332 -16.2133,7.03999 -9.1734,2.55999 -19.4133,2.55999 -9.3867,0 -17.7067,-2.77333 -8.32,-2.77332 -14.5066,-8.53332 -5.9733,-5.97332 -9.6,-15.14664 -3.4133,-9.17332 -3.4133,-21.9733 0,-11.94664 3.84,-21.97329 3.84,-10.02665 10.0266,-17.06664 6.1867,-7.25333 14.2933,-11.30665 8.1067,-4.05333 16.8533,-4.05333 9.3867,0 16.8533,3.41333 7.4667,3.41333 12.8,9.17332 5.3333,5.75999 8.1067,13.22664 2.7733,7.46666 2.7733,15.57331 0,2.77333 -0.64,7.67999 -0.64,4.90666 -2.56,9.38665 h -55.0399 q 0,6.82666 2.1333,10.87998 2.3467,4.05333 5.5467,6.39999 3.4133,2.13333 7.2533,2.98667 3.84,0.63999 7.2533,0.63999 6.8267,0 14.2933,-2.34666 7.68,-2.34666 12.5867,-6.61332 z m -18.7733,-28.37329 q 1.0667,-8.10665 -2.9867,-13.43998 -4.0533,-5.54666 -10.4533,-5.54666 -6.8266,0 -11.3066,5.54666 -4.48,5.33333 -5.5467,13.43998 z"
           id="path1096" /><path
           d="m 2899.5174,826.23413 q -5.12,-3.62666 -12.5867,-7.03999 -7.4666,-3.41333 -14.9333,-3.41333 -7.2533,0 -7.2533,5.11999 0,2.98666 3.4133,6.18666 3.6267,3.19999 14.72,8.53332 13.8666,6.82666 19.2,14.71998 5.3333,7.67998 5.3333,17.27997 0,7.89332 -3.2,13.43998 -2.9867,5.33332 -8.1067,8.74665 -4.9066,3.19999 -11.0933,4.47999 -6.1866,1.49333 -12.3733,1.49333 -11.52,0 -20.48,-3.19999 -8.9599,-2.98666 -16.2133,-8.53332 l 7.8934,-21.75997 q 5.9733,4.48 12.1599,7.25333 6.1867,2.77332 13.6533,2.77332 11.3067,0 11.3067,-6.61332 0,-3.41333 -4.2667,-5.54666 -4.2666,-2.34666 -12.1599,-6.61332 -7.04,-3.62666 -12.16,-7.03999 -5.12,-3.62666 -8.32,-7.46665 -3.2,-3.84 -4.6933,-8.31999 -1.4934,-4.47999 -1.4934,-10.02665 0,-6.61332 2.7734,-11.73331 2.7733,-5.33333 7.2533,-8.74666 4.48,-3.62666 10.24,-5.33332 5.9733,-1.92 12.1599,-1.92 10.0267,0 19.84,3.62666 9.8133,3.41333 16.64,9.38665 z"
           id="path1098" /><path
           d="m 2950.0774,795.30084 v 97.27985 h -27.7333 v -93.86652 z m -30.7199,-32.63994 q 0,-7.03999 4.9066,-11.94665 4.9067,-4.90666 11.9467,-4.90666 7.04,0 11.9466,4.90666 4.9067,4.90666 4.9067,11.94665 0,7.03998 -4.9067,11.94664 -4.9066,4.90666 -11.9466,4.90666 -7.04,0 -11.9467,-4.90666 -4.9066,-4.90666 -4.9066,-11.94664 z"
           id="path1100" /><path
           d="m 3012.7973,867.4074 q 4.2666,0 8.7466,-2.13333 4.48,-2.34667 6.8267,-7.25333 v -32.21328 q -2.3467,-3.62666 -5.76,-5.75999 -3.2,-2.34666 -7.68,-2.34666 -10.0267,0 -15.36,8.10665 -5.12,8.10666 -5.12,20.6933 0,11.51998 5.12,16.21331 5.3333,4.69333 13.2267,4.69333 z m 43.3066,-71.46656 v 95.14652 q 0,10.87998 -4.0534,19.19997 -3.84,8.53332 -10.6666,14.29331 -6.6133,5.97332 -15.5733,8.95998 -8.96,3.2 -19.2,3.2 -9.1733,0 -18.1333,-1.70667 -8.7466,-1.70666 -16.4266,-6.39999 l 8.1066,-23.67996 q 6.8267,3.62666 13.0133,5.11999 6.1867,1.70667 13.2267,1.70667 4.0533,0 8.32,-1.28 4.2666,-1.06667 7.68,-3.62666 3.6266,-2.56 5.7599,-6.61332 2.3467,-3.84 2.3467,-9.38666 v -8.53332 h -0.8533 q -4.48,4.69333 -10.0267,7.46666 -5.5466,2.56 -12.5866,2.56 -8.96,0 -16.4267,-2.98667 -7.4666,-2.98666 -13.0133,-8.74665 -5.3333,-5.75999 -8.5333,-14.29331 -2.9867,-8.53332 -2.9867,-19.4133 0,-10.87998 3.2,-20.6933 3.2,-9.81332 9.1734,-17.06664 6.1866,-7.46666 14.7199,-11.73332 8.7467,-4.47999 19.6267,-4.47999 5.5466,0 11.52,2.34666 5.9733,2.13333 10.0266,5.97333 h 1.28 l 13.6533,-6.82666 z"
           id="path1102" /><path
           d="m 3101.757,807.46082 q 4.9067,-6.61332 12.16,-10.45331 7.2533,-4.05333 16.4267,-4.05333 5.3333,0 10.4533,1.92 5.12,1.91999 8.96,5.75999 4.0533,3.83999 6.4,10.02665 2.3466,5.97332 2.3466,14.29331 v 67.62656 h -27.7333 v -57.59991 q 0,-9.17332 -3.4133,-12.37331 -3.2,-3.41333 -7.8933,-3.41333 -4.9067,0 -9.6,2.98666 -4.48,2.98666 -7.68,7.89332 v 62.50657 h -27.7333 v -96.63985 h 23.4666 l 2.56,11.51998 z"
           id="path1104" /><path
           d="m 3307.1965,884.2607 -20.9066,12.15998 q -5.12,-1.91999 -7.68,-5.11999 -2.56,-3.19999 -3.84,-7.25332 h -1.0667 q -4.6933,5.33332 -11.52,8.53332 -6.6133,3.19999 -14.7199,3.19999 -4.9067,0 -10.0267,-1.70666 -4.9066,-1.70666 -8.96,-5.11999 -4.0533,-3.62666 -6.6133,-9.17332 -2.3467,-5.54666 -2.3467,-13.01331 0,-14.93331 10.24,-23.8933 10.24,-8.95998 27.0933,-8.95998 4.48,0 8.32,0.63999 3.84,0.42667 8.1067,1.28 v -7.25332 q 0,-3.41333 -1.4934,-5.75999 -1.28,-2.34666 -3.6266,-3.62666 -2.1334,-1.49333 -5.12,-1.92 -2.7734,-0.64 -5.9733,-0.64 -10.6667,0 -24.32,8.95999 l -7.4667,-20.90663 q 6.6134,-4.90666 16.8533,-8.31999 10.4534,-3.41333 21.9733,-3.41333 7.04,0 13.6534,1.92 6.8266,1.70666 11.9466,5.75999 5.12,4.05333 8.1067,10.23998 2.9866,6.18666 2.9866,15.14664 l -0.4267,39.03994 q -0.2133,6.82666 1.7067,11.09332 2.1333,4.26666 5.12,6.18665 z m -33.9199,-31.35995 q -2.9867,-0.64 -6.1867,-1.28 -3.2,-0.64 -7.2533,-0.64 -5.76,0 -10.0267,3.62667 -4.0533,3.41332 -4.0533,9.17331 0,5.12 3.2,7.67999 3.4133,2.34667 8.32,2.34667 4.2666,0 8.5333,-2.13333 4.2667,-2.34667 7.4667,-6.82666 z"
           id="path1106" /><path
           d="m 3347.09,807.46082 q 4.9067,-6.61332 12.16,-10.45331 7.2534,-4.05333 16.4267,-4.05333 5.3333,0 10.4533,1.92 5.12,1.91999 8.96,5.75999 4.0533,3.83999 6.4,10.02665 2.3466,5.97332 2.3466,14.29331 v 67.62656 h -27.7333 v -57.59991 q 0,-9.17332 -3.4133,-12.37331 -3.2,-3.41333 -7.8933,-3.41333 -4.9067,0 -9.6,2.98666 -4.48,2.98666 -7.68,7.89332 v 62.50657 h -27.7333 v -96.63985 h 23.4667 l 2.56,11.51998 z"
           id="path1108" /><path
           d="m 3481.2763,883.6207 q -6.4,7.46666 -13.0133,9.81332 -6.6133,2.34666 -12.5866,2.34666 -7.2534,0 -14.08,-3.19999 -6.6133,-3.2 -11.9467,-9.38665 -5.12,-6.18666 -8.3199,-15.14665 -2.9867,-9.17331 -2.9867,-20.6933 0,-11.09331 2.9867,-20.90663 2.9866,-9.81332 8.5333,-17.27997 5.5466,-7.46666 13.2266,-11.73332 7.68,-4.47999 17.28,-4.47999 7.4666,0 12.16,2.56 4.9066,2.55999 7.2533,4.90666 h 0.8533 v -52.90659 l 27.7333,-2.55999 v 147.62643 h -22.8266 l -3.2,-8.95999 z m -15.5733,-12.58664 q 4.0533,0 8.32,-2.13333 4.2667,-2.34667 6.6133,-7.25333 v -35.41327 q -1.7066,-2.98666 -5.12,-5.75999 -3.2,-2.77333 -8.7466,-2.77333 -9.8133,0 -14.9333,7.89332 -5.12,7.89332 -5.12,20.6933 0,12.79998 5.12,18.7733 5.3333,5.97333 13.8666,5.97333 z"
           id="path1110" /><path
           d="m 3607.7827,892.58069 h -28.8 V 747.51425 h 28.8 z"
           id="path1112" /><path
           d="m 3713.3824,808.95416 q 5.5467,-7.67999 14.08,-11.73332 8.5333,-4.26666 17.4933,-4.26666 5.9734,0 11.0933,1.92 5.12,1.70666 8.7467,5.54666 3.84,3.62666 5.9733,9.59998 2.1334,5.75999 2.1334,14.07998 v 68.47989 h -27.7333 v -59.51991 q 0,-7.67998 -3.84,-10.66665 -3.6267,-3.19999 -7.2534,-3.19999 -6.1866,0 -11.0933,3.41333 -4.9066,3.41332 -7.04,7.67998 v 62.29324 h -27.7332 v -58.45324 q 0,-4.47999 -1.28,-7.25332 -1.0667,-2.98667 -2.7734,-4.69333 -1.7066,-1.70666 -3.84,-2.34666 -1.92,-0.64 -3.6266,-0.64 -5.3334,0 -10.24,3.19999 -4.6933,3.2 -7.4667,7.89332 v 62.29324 h -27.7333 v -96.63985 h 23.4667 l 2.56,11.51998 h 1.28 q 5.12,-6.82665 12.3733,-10.66665 7.2533,-3.83999 16.4266,-3.83999 8.7467,0 15.1467,4.47999 6.6133,4.26666 9.8133,11.51999 z"
           id="path1114" /><path
           d="m 3800.6357,794.44751 11.7333,6.82666 h 0.8533 q 4.48,-2.98666 11.0933,-5.54666 6.6133,-2.77333 15.36,-2.77333 7.68,0 15.1466,2.98666 7.4667,2.77333 13.2267,9.17332 5.9733,6.18666 9.6,16.21331 3.6266,10.02665 3.6266,24.31996 0,14.29331 -4.48,23.8933 -4.48,9.59998 -10.88,15.5733 -6.1866,5.75999 -13.2266,8.10666 -7.04,2.55999 -12.16,2.55999 -7.2533,0 -12.5866,-2.34666 -5.3333,-2.34666 -7.8933,-5.75999 h -1.0667 v 45.86659 l -27.7333,2.56 V 795.94084 Z m 32.6399,23.2533 q -5.9733,0 -9.3866,2.77333 -3.2,2.55999 -4.9067,5.54665 v 35.83995 q 2.3467,4.26666 6.1866,6.82665 3.84,2.34667 9.3867,2.34667 3.2,0 6.4,-1.49333 3.4133,-1.49334 5.9733,-4.69333 2.56,-3.2 4.2667,-8.10665 1.7066,-4.90666 1.7066,-11.73332 0,-7.67999 -1.92,-12.79998 -1.92,-5.33332 -4.9066,-8.53332 -2.7733,-3.19999 -6.1867,-4.47999 -3.4133,-1.49333 -6.6133,-1.49333 z"
           id="path1116" /><path
           d="m 3925.0088,744.95426 v 147.62643 h -27.7333 V 747.51425 Z"
           id="path1118" /><path
           d="m 4018.2352,863.35407 3.6266,22.82663 q -7.04,4.69332 -16.2133,7.03999 -9.1733,2.55999 -19.4133,2.55999 -9.3866,0 -17.7066,-2.77333 -8.32,-2.77332 -14.5067,-8.53332 -5.9733,-5.97332 -9.6,-15.14664 -3.4133,-9.17332 -3.4133,-21.9733 0,-11.94664 3.84,-21.97329 3.84,-10.02665 10.0267,-17.06664 6.1866,-7.25333 14.2933,-11.30665 8.1066,-4.05333 16.8533,-4.05333 9.3866,0 16.8533,3.41333 7.4666,3.41333 12.8,9.17332 5.3333,5.75999 8.1066,13.22664 2.7733,7.46666 2.7733,15.57331 0,2.77333 -0.64,7.67999 -0.64,4.90666 -2.5599,9.38665 h -55.04 q 0,6.82666 2.1334,10.87998 2.3466,4.05333 5.5466,6.39999 3.4134,2.13333 7.2534,2.98667 3.8399,0.63999 7.2533,0.63999 6.8266,0 14.2933,-2.34666 7.68,-2.34666 12.5866,-6.61332 z m -18.7733,-28.37329 q 1.0666,-8.10665 -2.9867,-13.43998 -4.0533,-5.54666 -10.4533,-5.54666 -6.8267,0 -11.3067,5.54666 -4.48,5.33333 -5.5466,13.43998 z"
           id="path1120" /><path
           d="m 4122.9818,808.95416 q 5.5467,-7.67999 14.08,-11.73332 8.5333,-4.26666 17.4933,-4.26666 5.9733,0 11.0933,1.92 5.12,1.70666 8.7467,5.54666 3.84,3.62666 5.9733,9.59998 2.1333,5.75999 2.1333,14.07998 v 68.47989 h -27.7333 v -59.51991 q 0,-7.67998 -3.84,-10.66665 -3.6266,-3.19999 -7.2533,-3.19999 -6.1866,0 -11.0933,3.41333 -4.9067,3.41332 -7.04,7.67998 v 62.29324 h -27.7333 v -58.45324 q 0,-4.47999 -1.28,-7.25332 -1.0666,-2.98667 -2.7733,-4.69333 -1.7067,-1.70666 -3.84,-2.34666 -1.92,-0.64 -3.6267,-0.64 -5.3333,0 -10.2399,3.19999 -4.6934,3.2 -7.4667,7.89332 v 62.29324 h -27.7333 v -96.63985 h 23.4666 l 2.56,11.51998 h 1.28 q 5.12,-6.82665 12.3733,-10.66665 7.2534,-3.83999 16.4267,-3.83999 8.7466,0 15.1466,4.47999 6.6134,4.26666 9.8133,11.51999 z"
           id="path1122" /><path
           d="m 4274.2349,863.35407 3.6267,22.82663 q -7.04,4.69332 -16.2133,7.03999 -9.1733,2.55999 -19.4133,2.55999 -9.3867,0 -17.7067,-2.77333 -8.32,-2.77332 -14.5066,-8.53332 -5.9733,-5.97332 -9.6,-15.14664 -3.4133,-9.17332 -3.4133,-21.9733 0,-11.94664 3.84,-21.97329 3.84,-10.02665 10.0266,-17.06664 6.1867,-7.25333 14.2933,-11.30665 8.1067,-4.05333 16.8533,-4.05333 9.3867,0 16.8533,3.41333 7.4667,3.41333 12.8,9.17332 5.3333,5.75999 8.1067,13.22664 2.7733,7.46666 2.7733,15.57331 0,2.77333 -0.64,7.67999 -0.64,4.90666 -2.56,9.38665 h -55.0399 q 0,6.82666 2.1333,10.87998 2.3467,4.05333 5.5467,6.39999 3.4133,2.13333 7.2533,2.98667 3.84,0.63999 7.2533,0.63999 6.8267,0 14.2933,-2.34666 7.68,-2.34666 12.5867,-6.61332 z m -18.7733,-28.37329 q 1.0667,-8.10665 -2.9866,-13.43998 -4.0534,-5.54666 -10.4534,-5.54666 -6.8266,0 -11.3066,5.54666 -4.48,5.33333 -5.5467,13.43998 z"
           id="path1124" /><path
           d="m 4324.155,807.46082 q 4.9066,-6.61332 12.16,-10.45331 7.2533,-4.05333 16.4266,-4.05333 5.3333,0 10.4533,1.92 5.12,1.91999 8.96,5.75999 4.0533,3.83999 6.4,10.02665 2.3467,5.97332 2.3467,14.29331 v 67.62656 h -27.7333 v -57.59991 q 0,-9.17332 -3.4134,-12.37331 -3.1999,-3.41333 -7.8933,-3.41333 -4.9066,0 -9.6,2.98666 -4.4799,2.98666 -7.6799,7.89332 v 62.50657 h -27.7333 v -96.63985 h 23.4666 l 2.56,11.51998 z"
           id="path1126" /><path
           d="m 4435.3013,762.6609 v 33.27994 h 18.3467 v 23.8933 h -18.3467 v 72.74655 h -27.7333 v -72.74655 h -17.4933 v -18.55997 l 17.4933,-6.82666 v -24.10663 z"
           id="path1128" /><path
           d="m 4544.5277,884.2607 -20.9067,12.15998 q -5.1199,-1.91999 -7.6799,-5.11999 -2.56,-3.19999 -3.84,-7.25332 h -1.0667 q -4.6933,5.33332 -11.52,8.53332 -6.6133,3.19999 -14.72,3.19999 -4.9066,0 -10.0266,-1.70666 -4.9067,-1.70666 -8.96,-5.11999 -4.0533,-3.62666 -6.6133,-9.17332 -2.3467,-5.54666 -2.3467,-13.01331 0,-14.93331 10.24,-23.8933 10.24,-8.95998 27.0933,-8.95998 4.48,0 8.32,0.63999 3.84,0.42667 8.1066,1.28 v -7.25332 q 0,-3.41333 -1.4933,-5.75999 -1.28,-2.34666 -3.6267,-3.62666 -2.1333,-1.49333 -5.1199,-1.92 -2.7734,-0.64 -5.9734,-0.64 -10.6666,0 -24.3199,8.95999 l -7.4667,-20.90663 q 6.6133,-4.90666 16.8533,-8.31999 10.4533,-3.41333 21.9733,-3.41333 7.04,0 13.6533,1.92 6.8267,1.70666 11.9467,5.75999 5.12,4.05333 8.1066,10.23998 2.9867,6.18666 2.9867,15.14664 l -0.4267,39.03994 q -0.2133,6.82666 1.7067,11.09332 2.1333,4.26666 5.12,6.18665 z m -33.92,-31.35995 q -2.9866,-0.64 -6.1866,-1.28 -3.2,-0.64 -7.2533,-0.64 -5.76,0 -10.0267,3.62667 -4.0533,3.41332 -4.0533,9.17331 0,5.12 3.2,7.67999 3.4133,2.34667 8.32,2.34667 4.2666,0 8.5333,-2.13333 4.2666,-2.34667 7.4666,-6.82666 z"
           id="path1130" /><path
           d="m 4593.1678,762.6609 v 33.27994 h 18.3466 v 23.8933 h -18.3466 v 72.74655 h -27.7333 v -72.74655 h -17.4933 v -18.55997 l 17.4933,-6.82666 v -24.10663 z"
           id="path1132" /><path
           d="m 4650.3409,795.30084 v 97.27985 h -27.7333 v -93.86652 z m -30.72,-32.63994 q 0,-7.03999 4.9067,-11.94665 4.9066,-4.90666 11.9466,-4.90666 7.04,0 11.9467,4.90666 4.9066,4.90666 4.9066,11.94665 0,7.03998 -4.9066,11.94664 -4.9067,4.90666 -11.9467,4.90666 -7.04,0 -11.9466,-4.90666 -4.9067,-4.90666 -4.9067,-11.94664 z"
           id="path1134" /><path
           d="m 4760.2072,845.22076 q 0,10.66665 -3.6267,19.83997 -3.6267,9.17332 -10.0266,15.99998 -6.4,6.82665 -14.9334,10.87998 -8.5333,3.83999 -18.3466,3.83999 -10.0266,0 -18.56,-3.62666 -8.5333,-3.62666 -14.9333,-10.02665 -6.1866,-6.61332 -9.8133,-15.99997 -3.6267,-9.38665 -3.6267,-20.90664 0,-11.30664 3.4134,-20.90663 3.6266,-9.59998 9.8133,-16.42664 6.1867,-7.03999 14.72,-10.87998 8.5333,-4.05333 18.7733,-4.05333 10.6666,0 19.1999,4.05333 8.7467,3.83999 14.9334,10.87998 6.1866,6.82666 9.5999,16.42664 3.4134,9.59999 3.4134,20.90663 z m -28.3733,-0.21333 q 0,-5.75999 -1.28,-10.87998 -1.0667,-5.11999 -3.4133,-8.74665 -2.1334,-3.84 -5.76,-5.97333 -3.4134,-2.34666 -8.1067,-2.34666 -4.2667,0 -7.8933,2.34666 -3.4133,2.34666 -5.76,6.18666 -2.3467,3.83999 -3.6267,8.95998 -1.28,4.90666 -1.28,10.45332 0,12.37331 5.3334,19.62664 5.3333,7.03999 13.4399,7.03999 7.68,0 13.0134,-7.25333 5.3333,-7.25332 5.3333,-19.4133 z"
           id="path1136" /><path
           d="m 4802.0205,807.46082 q 4.9066,-6.61332 12.1599,-10.45331 7.2534,-4.05333 16.4267,-4.05333 5.3333,0 10.4533,1.92 5.12,1.91999 8.96,5.75999 4.0533,3.83999 6.4,10.02665 2.3466,5.97332 2.3466,14.29331 v 67.62656 h -27.7332 v -57.59991 q 0,-9.17332 -3.4134,-12.37331 -3.2,-3.41333 -7.8933,-3.41333 -4.9067,0 -9.6,2.98666 -4.48,2.98666 -7.68,7.89332 v 62.50657 h -27.7333 v -96.63985 h 23.4667 l 2.56,11.51998 z"
           id="path1138" /></g><g
         aria-label="Practical Series Documentation
"
         transform="scale(0.89687635,1.1149809)"
         id="text1002"
         style="font-size:215.25px;font-family:'Concourse C8';-inkscape-font-specification:'Concourse C8, Normal';letter-spacing:0px;fill:#1f2d41;stroke:#008000;stroke-width:0;stroke-linejoin:round;paint-order:fill markers stroke"><path
           d="m 1627.5879,160.43908 q 0,12.915 -5.5965,22.386 -5.5965,9.471 -14.637,15.71325 -8.8253,6.027 -20.0183,9.0405 -10.9777,2.79825 -21.9555,2.79825 h -9.9015 v 44.98725 h -50.5837 v -146.37 h 58.3327 q 14.2065,0 25.83,3.22875 11.8388,3.0135 20.4488,9.471 8.61,6.4575 13.3455,16.14375 4.7355,9.68625 4.7355,22.60125 z m -49.5075,0.64575 q 0,-5.5965 -3.8745,-9.471 -3.6593,-4.08975 -10.1168,-4.08975 h -8.61 v 26.691 h 8.61 q 7.5338,0 10.7625,-3.8745 3.2288,-3.8745 3.2288,-9.25575 z"
           id="path1015" /><path
           d="m 1771.1596,254.28808 v 1.07625 h -51.4447 l -25.83,-38.3145 h -1.722 v 38.3145 h -47.355 v -113.652 h 63.714 q 11.193,0 20.4487,2.79825 9.471,2.79825 16.1438,7.96425 6.6727,4.95075 10.332,12.054 3.8745,7.10325 3.8745,15.9285 0,11.83875 -5.5965,19.3725 -5.3813,7.53375 -15.0675,11.193 z m -58.1175,-71.67825 q 0,-4.95075 -3.0135,-7.3185 -3.0135,-2.36775 -6.2422,-2.36775 h -11.6235 v 19.803 h 11.8387 q 4.0898,0 6.4575,-2.583 2.583,-2.583 2.583,-7.53375 z"
           id="path1017" /><path
           d="m 1868.0221,241.37308 h -35.5162 l -5.5965,13.99125 h -46.9245 l 46.494,-113.652 h 47.355 l 46.9245,113.652 h -46.9245 z m -27.7672,-27.33675 h 19.803 l -9.2558,-26.691 h -1.2915 z"
           id="path1019" /><path
           d="m 2034.1953,211.02283 v 39.1755 q -6.888,4.305 -16.1438,6.24225 -9.0405,2.1525 -18.7267,2.1525 -15.9285,0 -28.413,-4.52025 -12.4845,-4.7355 -21.0945,-12.69975 -8.61,-7.96425 -13.1303,-18.5115 -4.5202,-10.7625 -4.5202,-22.8165 0,-14.637 5.5965,-26.04525 5.5965,-11.6235 14.8522,-19.3725 9.471,-7.96425 21.525,-12.054 12.2693,-4.08975 25.6148,-4.08975 11.193,0 20.4487,2.583 9.2558,2.583 13.9913,5.5965 v 37.66875 h -1.722 q -4.5203,-2.583 -11.8388,-4.95075 -7.3185,-2.36775 -15.9285,-2.1525 -4.9507,0 -9.6862,1.2915 -4.5203,1.2915 -8.1795,3.8745 -3.444,2.583 -5.5965,6.67275 -1.9373,3.8745 -1.9373,9.471 0,5.166 1.9373,9.0405 2.1525,3.8745 5.5965,6.67275 3.6592,2.79825 8.1795,4.305 4.7355,1.2915 10.1167,1.2915 8.61,0 15.0675,-2.583 6.4575,-2.79825 12.2693,-6.24225 z"
           id="path1021" /><path
           d="m 2134.0712,177.65908 v 77.70525 h -48.4313 v -77.70525 h -32.5027 v -35.94675 h 113.2215 v 35.94675 z"
           id="path1023" /><path
           d="m 2239.9743,255.36433 h -49.5075 v -113.652 h 49.5075 z"
           id="path1025" /><path
           d="m 2365.6804,211.02283 v 39.1755 q -6.888,4.305 -16.1437,6.24225 -9.0405,2.1525 -18.7268,2.1525 -15.9285,0 -28.413,-4.52025 -12.4845,-4.7355 -21.0945,-12.69975 -8.61,-7.96425 -13.1302,-18.5115 -4.5203,-10.7625 -4.5203,-22.8165 0,-14.637 5.5965,-26.04525 5.5965,-11.6235 14.8523,-19.3725 9.471,-7.96425 21.525,-12.054 12.2692,-4.08975 25.6147,-4.08975 11.193,0 20.4488,2.583 9.2557,2.583 13.9912,5.5965 v 37.66875 h -1.722 q -4.5202,-2.583 -11.8387,-4.95075 -7.3185,-2.36775 -15.9285,-2.1525 -4.9508,0 -9.6863,1.2915 -4.5202,1.2915 -8.1795,3.8745 -3.444,2.583 -5.5965,6.67275 -1.9372,3.8745 -1.9372,9.471 0,5.166 1.9372,9.0405 2.1525,3.8745 5.5965,6.67275 3.6593,2.79825 8.1795,4.305 4.7355,1.2915 10.1168,1.2915 8.61,0 15.0675,-2.583 6.4575,-2.79825 12.2692,-6.24225 z"
           id="path1027" /><path
           d="m 2470.7224,241.37308 h -35.5163 l -5.5965,13.99125 h -46.9245 l 46.494,-113.652 h 47.355 l 46.9245,113.652 h -46.9245 z m -27.7673,-27.33675 h 19.803 l -9.2557,-26.691 h -1.2915 z"
           id="path1029" /><path
           d="m 2590.832,219.41758 h 41.328 v 35.94675 h -89.7592 v -113.652 h 48.4312 z"
           id="path1031" /><path
           d="m 2726.6547,200.26033 q 11.4083,8.1795 23.6775,12.915 12.4845,4.52025 24.3233,4.52025 6.2422,0 8.61,-1.2915 2.583,-1.2915 2.583,-3.65925 0,-1.93725 -2.3678,-3.444 -2.1525,-1.50675 -6.027,-2.79825 -12.054,-4.08975 -22.8165,-8.82525 -10.5472,-4.7355 -18.5115,-10.97775 -7.9642,-6.4575 -12.4845,-14.85225 -4.5202,-8.61 -4.5202,-20.664 0,-9.471 3.2287,-17.6505 3.444,-8.39475 10.1168,-14.42175 6.888,-6.24225 17.0047,-9.68625 10.332,-3.65925 24.3233,-3.65925 16.7895,0 30.996,4.52025 14.2065,4.305 25.83,11.6235 l -13.1303,38.52975 q -4.9507,-3.22875 -10.332,-5.81175 -5.3812,-2.583 -10.7625,-4.305 -5.3812,-1.93725 -10.332,-2.79825 -4.9507,-0.861 -8.61,-0.861 -4.305,0 -7.3185,0.861 -2.7982,0.861 -2.7982,3.8745 0,2.36775 4.305,4.95075 4.5202,2.36775 12.4845,5.166 13.1302,4.52025 22.386,9.68625 9.471,4.95075 15.498,11.193 6.027,6.24225 8.61,14.2065 2.7982,7.749 2.7982,18.081 0,12.4845 -5.8117,20.87925 -5.8118,8.39475 -14.8523,13.56075 -8.8252,5.166 -19.5877,7.3185 -10.7625,2.1525 -20.664,2.1525 -9.471,0 -18.5115,-1.722 -8.8253,-1.50675 -16.7895,-4.08975 -7.749,-2.79825 -14.4218,-6.4575 -6.4575,-3.65925 -10.9777,-7.749 z"
           id="path1033" /><path
           d="m 2955.8959,173.99983 h -49.7227 v 10.97775 h 42.189 v 27.1215 h -42.189 v 10.97775 h 50.799 v 32.2875 h -98.154 v -113.652 h 97.0777 z"
           id="path1035" /><path
           d="m 3110.0149,254.28808 v 1.07625 h -51.4448 l -25.83,-38.3145 h -1.722 v 38.3145 h -47.355 v -113.652 h 63.714 q 11.193,0 20.4488,2.79825 9.471,2.79825 16.1437,7.96425 6.6728,4.95075 10.332,12.054 3.8745,7.10325 3.8745,15.9285 0,11.83875 -5.5965,19.3725 -5.3812,7.53375 -15.0675,11.193 z m -58.1175,-71.67825 q 0,-4.95075 -3.0135,-7.3185 -3.0135,-2.36775 -6.2423,-2.36775 h -11.6235 v 19.803 h 11.8388 q 4.0897,0 6.4575,-2.583 2.583,-2.583 2.583,-7.53375 z"
           id="path1037" /><path
           d="m 3176.3118,255.36433 h -49.5075 v -113.652 h 49.5075 z"
           id="path1039" /><path
           d="m 3302.4485,173.99983 h -49.7227 v 10.97775 h 42.189 v 27.1215 h -42.189 v 10.97775 h 50.799 v 32.2875 h -98.154 v -113.652 h 97.0777 z"
           id="path1041" /><path
           d="m 3333.2293,211.23808 q 4.0897,2.583 9.0405,4.95075 4.9507,2.1525 10.1167,4.08975 5.3813,1.722 10.9778,2.79825 5.5965,1.07625 10.9777,1.07625 4.9508,0 6.888,-0.861 1.9373,-1.07625 1.9373,-3.0135 0,-2.36775 -3.8745,-3.444 -3.6593,-1.07625 -12.915,-4.08975 -21.0945,-7.10325 -29.9198,-16.14375 -8.8252,-9.25575 -8.8252,-22.17075 0,-7.3185 3.444,-13.776 3.444,-6.4575 9.9015,-11.40825 6.6727,-4.95075 15.9285,-7.749 9.471,-3.0135 21.525,-3.0135 15.498,0 29.0587,3.65925 13.5608,3.65925 23.247,9.9015 l -12.915,31.4265 q -19.803,-10.7625 -35.7315,-10.7625 -4.305,0 -6.027,0.861 -1.722,0.861 -1.722,1.93725 0,1.93725 3.2288,3.65925 3.444,1.50675 11.8387,4.08975 12.915,4.305 20.8793,8.82525 8.1795,4.305 12.6997,9.25575 4.5203,4.95075 6.027,10.7625 1.5068,5.5965 1.5068,12.054 0,8.39475 -4.305,14.85225 -4.305,6.4575 -11.6235,10.97775 -7.1033,4.305 -16.7895,6.4575 -9.6863,2.1525 -20.4488,2.1525 -9.2557,0 -17.8657,-1.2915 -8.61,-1.2915 -15.9285,-3.444 -7.3185,-2.1525 -13.1303,-4.7355 -5.8117,-2.583 -9.2557,-5.166 z"
           id="path1043" /><path
           d="m 3582.0582,212.31433 q 4.7355,0 9.471,-1.93725 4.9507,-1.93725 8.61,-5.5965 3.6592,-3.8745 6.027,-9.471 2.3677,-5.81175 2.3677,-13.3455 0,-8.39475 -2.583,-13.99125 -2.583,-5.81175 -6.4575,-9.25575 -3.8745,-3.65925 -8.3947,-5.166 -4.305,-1.50675 -8.1795,-1.50675 h -10.5473 v 60.27 z m -58.1175,43.05 v -146.37 h 54.8887 q 16.359,0 30.996,4.7355 14.8523,4.52025 26.0453,13.99125 11.193,9.25575 17.6505,23.247 6.6727,13.99125 6.6727,32.50275 0,15.9285 -6.4575,29.05875 -6.2422,13.13025 -16.7895,22.8165 -10.5472,9.471 -24.5385,14.85225 -13.9912,5.166 -29.0587,5.166 z"
           id="path1045" /><path
           d="m 3813.452,199.18408 q 0,11.6235 -4.7355,22.386 -4.7355,10.7625 -13.5608,19.15725 -8.8252,8.1795 -21.525,13.13025 -12.4845,4.7355 -27.9825,4.7355 -15.2827,0 -27.552,-4.52025 -12.054,-4.7355 -20.664,-12.69975 -8.3947,-7.96425 -12.915,-18.72675 -4.5202,-10.97775 -4.5202,-23.46225 0,-13.99125 5.3812,-25.18425 5.5965,-11.193 14.637,-19.15725 9.2558,-7.96425 21.3098,-12.054 12.2692,-4.305 25.6147,-4.305 13.1303,0 24.969,4.305 12.054,4.08975 21.3098,11.83875 9.2557,7.749 14.637,19.15725 5.5965,11.193 5.5965,25.3995 z m -48.0008,-0.4305 q 0,-5.81175 -1.722,-9.9015 -1.722,-4.305 -4.5202,-6.888 -2.583,-2.583 -6.027,-3.8745 -3.444,-1.2915 -6.888,-1.2915 -7.9643,0 -13.5608,5.38125 -5.5965,5.166 -5.5965,16.57425 0,11.193 5.166,16.359 5.3813,5.166 14.2065,5.166 7.749,0 13.3455,-4.95075 5.5965,-5.166 5.5965,-16.57425 z"
           id="path1047" /><path
           d="m 3932.7005,211.02283 v 39.1755 q -6.888,4.305 -16.1437,6.24225 -9.0405,2.1525 -18.7268,2.1525 -15.9285,0 -28.413,-4.52025 -12.4845,-4.7355 -21.0945,-12.69975 -8.61,-7.96425 -13.1302,-18.5115 -4.5203,-10.7625 -4.5203,-22.8165 0,-14.637 5.5965,-26.04525 5.5965,-11.6235 14.8523,-19.3725 9.471,-7.96425 21.525,-12.054 12.2692,-4.08975 25.6147,-4.08975 11.193,0 20.4488,2.583 9.2557,2.583 13.9912,5.5965 v 37.66875 h -1.722 q -4.5202,-2.583 -11.8387,-4.95075 -7.3185,-2.36775 -15.9285,-2.1525 -4.9508,0 -9.6863,1.2915 -4.5202,1.2915 -8.1795,3.8745 -3.444,2.583 -5.5965,6.67275 -1.9372,3.8745 -1.9372,9.471 0,5.166 1.9372,9.0405 2.1525,3.8745 5.5965,6.67275 3.6593,2.79825 8.1795,4.305 4.7355,1.2915 10.1168,1.2915 8.61,0 15.0675,-2.583 6.4575,-2.79825 12.2692,-6.24225 z"
           id="path1049" /><path
           d="m 4079.2859,210.80758 q 0,9.25575 -3.8745,17.86575 -3.6593,8.61 -11.193,15.28275 -7.5338,6.67275 -18.942,10.7625 -11.193,3.8745 -26.2605,3.8745 -17.22,0 -28.8435,-3.8745 -11.4083,-4.08975 -18.5115,-10.7625 -6.888,-6.67275 -9.9015,-15.28275 -3.0135,-8.61 -3.0135,-17.86575 v -69.09525 h 48.4312 v 65.436 q 0,6.67275 3.2288,9.9015 3.444,3.22875 9.0405,3.22875 4.5202,0 7.9642,-3.0135 3.444,-3.22875 3.444,-9.9015 v -65.65125 h 48.4313 z"
           id="path1051" /><path
           d="m 4211.019,209.73133 -17.4352,45.633 h -21.7403 l -17.6505,-45.633 h -1.5067 l -8.1795,45.633 h -45.2025 l 23.6775,-113.652 h 37.6687 l 21.7403,54.88875 h 1.0762 l 21.0945,-54.88875 h 37.6688 l 23.6775,113.652 h -45.2025 l -8.1795,-45.633 z"
           id="path1053" /><path
           d="m 4385.1562,173.99983 h -49.7228 v 10.97775 h 42.189 v 27.1215 h -42.189 v 10.97775 h 50.799 v 32.2875 h -98.154 v -113.652 h 97.0778 z"
           id="path1055" /><path
           d="m 4490.8439,189.28258 h 1.722 v -47.57025 h 47.355 v 113.652 h -34.44 l -43.4805,-47.13975 h -1.722 v 47.13975 h -47.355 v -113.652 h 34.44 z"
           id="path1057" /><path
           d="m 4643.8866,177.65908 v 77.70525 h -48.4312 v -77.70525 h -32.5028 v -35.94675 h 113.2215 v 35.94675 z"
           id="path1059" /><path
           d="m 4769.5925,241.37308 h -35.5163 l -5.5965,13.99125 h -46.9245 l 46.494,-113.652 h 47.355 l 46.9245,113.652 h -46.9245 z m -27.7673,-27.33675 h 19.803 l -9.2557,-26.691 h -1.2915 z"
           id="path1061" /><path
           d="m 4908.6439,177.65908 v 77.70525 h -48.4312 v -77.70525 h -32.5028 v -35.94675 h 113.2215 v 35.94675 z"
           id="path1063" /><path
           d="m 5014.5472,255.36433 h -49.5075 v -113.652 h 49.5075 z"
           id="path1065" /><path
           d="m 5171.6797,199.18408 q 0,11.6235 -4.7355,22.386 -4.7355,10.7625 -13.5607,19.15725 -8.8253,8.1795 -21.525,13.13025 -12.4845,4.7355 -27.9825,4.7355 -15.2828,0 -27.552,-4.52025 -12.054,-4.7355 -20.664,-12.69975 -8.3948,-7.96425 -12.915,-18.72675 -4.5203,-10.97775 -4.5203,-23.46225 0,-13.99125 5.3813,-25.18425 5.5965,-11.193 14.637,-19.15725 9.2557,-7.96425 21.3097,-12.054 12.2693,-4.305 25.6148,-4.305 13.1302,0 24.969,4.305 12.054,4.08975 21.3097,11.83875 9.2558,7.749 14.637,19.15725 5.5965,11.193 5.5965,25.3995 z m -48.0007,-0.4305 q 0,-5.81175 -1.722,-9.9015 -1.722,-4.305 -4.5203,-6.888 -2.583,-2.583 -6.027,-3.8745 -3.444,-1.2915 -6.888,-1.2915 -7.9642,0 -13.5607,5.38125 -5.5965,5.166 -5.5965,16.57425 0,11.193 5.166,16.359 5.3812,5.166 14.2065,5.166 7.749,0 13.3455,-4.95075 5.5965,-5.166 5.5965,-16.57425 z"
           id="path1067" /><path
           d="m 5272.2018,189.28258 h 1.722 v -47.57025 h 47.355 v 113.652 h -34.44 l -43.4805,-47.13975 h -1.722 v 47.13975 h -47.355 v -113.652 h 34.44 z"
           id="path1069" /></g></g></g></svg>
